<svg width="800" height="800" viewBox="0 0 800 800" fill="none" xmlns="http://www.w3.org/2000/svg">
<path d="M683.336 200H116.667" stroke="black" stroke-width="50" stroke-linecap="round"/>
<path d="M216.667 200C218.529 200 219.461 200 220.305 199.979C247.753 199.283 271.967 181.83 281.307 156.011C281.595 155.216 281.889 154.333 282.478 152.566L285.714 142.857C288.477 134.569 289.858 130.425 291.69 126.907C299 112.869 312.525 103.121 328.154 100.626C332.071 100 336.44 100 345.176 100H454.823C463.56 100 467.93 100 471.847 100.626C487.477 103.121 501 112.869 508.31 126.907C510.143 130.425 511.523 134.569 514.287 142.857L517.523 152.566C518.11 154.331 518.406 155.217 518.693 156.011C528.033 181.83 552.246 199.283 579.696 199.979C580.54 200 581.47 200 583.333 200" stroke="black" stroke-width="50"/>
<path d="M612.45 513.303C606.55 601.8 603.6 646.05 574.767 673.023C545.933 700 501.587 700 412.893 700H387.113C298.42 700 254.073 700 225.24 673.023C196.406 646.05 193.456 601.8 187.556 513.303L172.225 283.333M627.78 283.333L621.113 383.333" stroke="black" stroke-width="50" stroke-linecap="round"/>
</svg>
